<svg width="21" height="24" viewBox="0 0 21 24" fill="none" xmlns="http://www.w3.org/2000/svg">
<path d="M15.8226 7.19208V5.75366C15.8226 2.58106 13.2415 0 10.0689 0C6.8963 0 4.31525 2.58106 4.31525 5.75366V7.19208H0V19.4186C0 21.4047 1.60999 23.0146 3.59604 23.0146H16.5418C18.5278 23.0146 20.1378 21.4047 20.1378 19.4186V7.19208H15.8226ZM7.19208 5.75366C7.19208 4.16736 8.4826 2.87683 10.0689 2.87683C11.6552 2.87683 12.9457 4.16736 12.9457 5.75366V7.19208H7.19208V5.75366ZM14.3842 11.1477C13.7883 11.1477 13.3053 10.6647 13.3053 10.0689C13.3053 9.47309 13.7883 8.9901 14.3842 8.9901C14.98 8.9901 15.463 9.47309 15.463 10.0689C15.463 10.6647 14.98 11.1477 14.3842 11.1477ZM5.75366 11.1477C5.15784 11.1477 4.67485 10.6647 4.67485 10.0689C4.67485 9.47309 5.15784 8.9901 5.75366 8.9901C6.34948 8.9901 6.83247 9.47309 6.83247 10.0689C6.83247 10.6647 6.34948 11.1477 5.75366 11.1477Z" fill="#BFC9DA"/>
</svg>
