<svg width="89" height="80" viewBox="0 0 89 80" fill="none" xmlns="http://www.w3.org/2000/svg">
<path d="M82.1051 4.2321C78.5521 1.65591 74.122 0.594922 69.7874 1.28209C65.4528 1.96925 61.5681 4.3484 58.9861 7.89719L44.8434 27.3615L30.7111 7.89719C29.468 6.05164 27.8659 4.47544 26.0003 3.26267C24.1347 2.04989 22.0439 1.2254 19.8527 0.8384C17.6615 0.451402 15.4147 0.509829 13.2466 1.0102C11.0784 1.51056 9.03329 2.44261 7.23326 3.75071C5.43323 5.05881 3.91519 6.71615 2.76974 8.62382C1.62429 10.5315 0.874905 12.6504 0.56632 14.854C0.257736 17.0576 0.396274 19.3009 0.973665 21.4498C1.55106 23.5987 2.55547 25.6093 3.92695 27.3615L39.4079 76.1982C40.0104 77.0865 40.8213 77.8138 41.7697 78.3164C42.7181 78.8191 43.7752 79.0819 44.8486 79.0819C45.9219 79.0819 46.979 78.8191 47.9274 78.3164C48.8758 77.8138 49.6867 77.0865 50.2892 76.1982L85.7702 27.3615C88.3496 23.8077 89.4126 19.3752 88.7253 15.0381C88.038 10.7011 85.6569 6.81429 82.1051 4.2321ZM75.5618 20.5904L44.8434 62.8735L14.125 20.5904C13.7548 20.1162 13.4838 19.5723 13.3282 18.9912C13.1726 18.4101 13.1355 17.8036 13.2192 17.2078C13.3029 16.6121 13.5057 16.0392 13.8155 15.5235C14.1252 15.0078 14.5356 14.5596 15.0222 14.2058C15.5087 13.852 16.0615 13.5998 16.6476 13.4641C17.2337 13.3284 17.8412 13.3121 18.4337 13.4161C19.0263 13.5201 19.5918 13.7424 20.0967 14.0695C20.6015 14.3967 21.0354 14.8222 21.3723 15.3205L44.8434 47.6644L68.3144 15.362C68.6514 14.8636 69.0853 14.4381 69.5901 14.111C70.095 13.7838 70.6605 13.5616 71.2531 13.4575C71.8456 13.3535 72.453 13.3698 73.0391 13.5055C73.6253 13.6412 74.1781 13.8934 74.6646 14.2472C75.1512 14.6011 75.5616 15.0492 75.8713 15.5649C76.1811 16.0807 76.3838 16.6535 76.4675 17.2492C76.5513 17.845 76.5142 18.4515 76.3586 19.0326C76.203 19.6137 75.932 20.1576 75.5618 20.6318" fill="#76BC21"/>
</svg>
