<svg width="221" height="221" viewBox="0 0 221 221" fill="none" xmlns="http://www.w3.org/2000/svg">
<path fill-rule="evenodd" clip-rule="evenodd" d="M110.5 221C171.527 221 221 171.527 221 110.5C221 49.4725 171.527 0 110.5 0C49.4725 0 0 49.4725 0 110.5C0 171.527 49.4725 221 110.5 221Z" fill="white"/>
<mask id="mask0_8889_75772" style="mask-type:luminance" maskUnits="userSpaceOnUse" x="0" y="0" width="221" height="221">
<path fill-rule="evenodd" clip-rule="evenodd" d="M110.5 221C171.527 221 221 171.527 221 110.5C221 49.4725 171.527 0 110.5 0C49.4725 0 0 49.4725 0 110.5C0 171.527 49.4725 221 110.5 221Z" fill="white"/>
</mask>
<g mask="url(#mask0_8889_75772)">
<path fill-rule="evenodd" clip-rule="evenodd" d="M-1.97971 119L224.739 146.451L236 175L-23 146.451L-1.97971 119Z" fill="#008176"/>
<path d="M79.3536 142.569C89.5638 143.822 98.8571 136.562 100.111 126.351C101.364 116.141 94.1037 106.848 83.8935 105.594C73.6833 104.341 64.39 111.601 63.1363 121.811C61.8826 132.022 69.1434 141.315 79.3536 142.569Z" fill="#40596B"/>
<path d="M63.3516 121.84C63.2705 122.5 63.1624 123.38 63.3014 124.068L99.8357 128.554C99.9168 127.893 100.245 127.04 100.326 126.38L63.3516 121.84Z" fill="#334A5E"/>
<path d="M80.62 132.224C85.1174 132.776 89.2109 129.578 89.7631 125.08C90.3153 120.583 87.1171 116.49 82.6198 115.937C78.1224 115.385 74.0289 118.583 73.4767 123.081C72.9245 127.578 76.1227 131.672 80.62 132.224Z" fill="#F2F2F2"/>
<path d="M148.828 118.929L147.207 132.134L70.6166 122.73L74.9403 87.5163L95.8485 90.0835C106.193 91.3536 113.309 100.717 112.039 111.061L111.363 116.563L120.387 117.671C121.777 111.81 125.893 107.4 131.086 105.134C136.252 103.087 139.789 97.9362 139.584 92.3259L139.553 90.7583L147.256 91.7041C149.31 100.446 149.963 109.685 148.828 118.929Z" fill="#F2E31B"/>
<path d="M84.6992 98.9908C70.8338 97.2883 58.2312 107.135 56.5287 121L106.708 127.161C108.411 113.296 98.5647 100.693 84.6992 98.9908Z" fill="#008176"/>
<path d="M84.429 101.192C97.6342 102.813 106.955 114.234 106.488 127.134L106.708 127.161C108.411 113.296 98.5647 100.693 84.6992 98.9908C70.8338 97.2883 58.2312 107.135 56.5287 121L56.7488 121.027C59.4166 108.397 71.4439 99.5973 84.429 101.192Z" fill="#2F5502"/>
<path d="M73.4766 123.082C73.3955 123.742 73.5075 124.65 73.6465 125.337L89.4927 127.283C89.7939 126.649 90.1221 125.796 90.2031 125.136L73.4766 123.082Z" fill="#CDD6E0"/>
<path d="M107.333 98.4188C107.993 98.4999 108.68 98.3609 109.121 98.4149C106.086 94.021 101.348 90.7584 95.8457 90.0828L74.9375 87.5156L74.0998 94.3383L107.333 98.4188Z" fill="#F2E31B"/>
<path d="M107.609 96.2201L73.936 92.0855C71.7351 91.8153 70.1906 89.8384 70.4608 87.6375L70.623 86.317C70.8932 84.1162 72.8701 82.5717 75.0709 82.8419L108.744 86.9764C110.945 87.2467 112.49 89.2235 112.219 91.4244L112.057 92.7449C111.787 94.9458 109.81 96.4903 107.609 96.2201Z" fill="#008176"/>
<path d="M147.649 93.9891L146.989 93.9081C146.081 94.0201 142.699 94.275 139.371 94.0897C139.452 93.4295 139.506 92.9893 139.367 92.302L139.336 90.7344L147.039 91.6802C147.398 92.3945 147.537 93.0818 147.649 93.9891Z" fill="#F2E31B"/>
<path d="M147.035 91.678C147.035 91.678 134.606 92.8328 132.289 89.8675C130.745 87.8906 131.582 81.0679 133.559 79.5234C136.525 77.2067 148.305 81.334 148.305 81.334L147.035 91.678Z" fill="#40596B"/>
<rect x="148.305" y="81.332" width="2.43913" height="10.4217" transform="rotate(7 148.305 81.332)" fill="#F2E31B"/>
<path d="M135.527 87.1353L129.145 86.3516C127.824 86.1895 127.079 84.981 127.214 83.8806C127.376 82.56 128.585 81.8148 129.685 81.9499L136.068 82.7336C137.388 82.8957 138.133 84.1043 137.998 85.2047C137.836 86.5252 136.848 87.2975 135.527 87.1353Z" fill="#CDD6E0"/>
<path d="M142.953 150.383C149.638 151.204 155.723 146.45 156.544 139.765C157.364 133.08 152.61 126.995 145.925 126.174C139.24 125.353 133.155 130.107 132.334 136.792C131.513 143.478 136.267 149.562 142.953 150.383Z" fill="#40596B"/>
<path d="M145.956 125.951C139.354 125.14 133.176 129.967 132.365 136.57C132.122 138.55 132.319 140.585 132.983 142.454L156.432 137.067C156.227 131.457 151.679 126.654 145.956 125.951Z" fill="#334A5E"/>
<path d="M143.848 143.118C146.522 143.446 148.956 141.545 149.285 138.871C149.613 136.197 147.711 133.763 145.037 133.434C142.363 133.106 139.929 135.008 139.601 137.682C139.272 140.356 141.174 142.79 143.848 143.118Z" fill="#F2F2F2"/>
<path d="M149.285 138.871C149.609 136.23 147.678 133.759 145.037 133.434C142.396 133.11 139.925 135.041 139.601 137.682C139.466 138.782 139.771 139.937 140.323 140.898L149.285 138.871Z" fill="#CDD6E0"/>
<path d="M140.273 119.446C130.377 121.805 124.018 131.748 126.377 141.644L162.471 133.342C160.332 123.473 150.362 117.334 140.273 119.446Z" fill="#008176"/>
<path d="M126.07 140.49C125.583 131.717 131.699 123.755 140.661 121.728C149.402 119.674 158.24 124.11 161.97 131.94C161.998 131.72 161.804 131.473 161.831 131.253C159.812 125.867 155.402 121.751 150.008 120.195C149.788 120.168 149.375 119.894 149.155 119.867C148.935 119.84 148.495 119.786 148.275 119.759C147.614 119.678 146.734 119.569 146.074 119.488C145.194 119.38 144.506 119.519 143.626 119.411C143.406 119.384 143.406 119.384 143.186 119.357C142.498 119.496 141.591 119.608 140.904 119.747L140.684 119.72C130.842 121.639 124.784 130.949 126.07 140.49Z" fill="#2F5502"/>
</g>
<path fill-rule="evenodd" clip-rule="evenodd" d="M190.696 188.524C192.737 188.524 194.391 186.87 194.391 184.828C194.391 182.787 192.737 181.133 190.696 181.133C188.655 181.133 187 182.787 187 184.828C187 186.87 188.655 188.524 190.696 188.524Z" fill="#22A45D"/>
<path fill-rule="evenodd" clip-rule="evenodd" d="M104.219 56.9616C106.26 56.9616 107.915 55.307 107.915 53.266C107.915 51.2249 106.26 49.5703 104.219 49.5703C102.178 49.5703 100.523 51.2249 100.523 53.266C100.523 55.307 102.178 56.9616 104.219 56.9616Z" fill="#22A45D"/>
<path fill-rule="evenodd" clip-rule="evenodd" d="M11.0863 64.3522C13.1273 64.3522 14.7819 62.6976 14.7819 60.6566C14.7819 58.6155 13.1273 56.9609 11.0863 56.9609C9.04522 56.9609 7.39062 58.6155 7.39062 60.6566C7.39062 62.6976 9.04522 64.3522 11.0863 64.3522Z" fill="#22A45D"/>
<path fill-rule="evenodd" clip-rule="evenodd" d="M25.8675 145.657C27.9086 145.657 29.5632 144.002 29.5632 141.961C29.5632 139.92 27.9086 138.266 25.8675 138.266C23.8265 138.266 22.1719 139.92 22.1719 141.961C22.1719 144.002 23.8265 145.657 25.8675 145.657Z" fill="#22A45D"/>
<path fill-rule="evenodd" clip-rule="evenodd" d="M17.3668 34.0469L22.1712 38.8512L17.3668 43.6556L12.5625 38.8512L17.3668 34.0469Z" fill="#FFD841"/>
<path fill-rule="evenodd" clip-rule="evenodd" d="M52.109 153.785L56.9134 158.59L52.109 163.394L47.3047 158.59L52.109 153.785Z" fill="#FFD841"/>
<path fill-rule="evenodd" clip-rule="evenodd" d="M199.195 163.395L203.999 168.199L199.195 173.003L194.391 168.199L199.195 163.395Z" fill="#FFD841"/>
<path fill-rule="evenodd" clip-rule="evenodd" d="M116.414 71.7422L121.218 76.5465L116.414 81.3509L111.609 76.5465L116.414 71.7422Z" fill="#FFD841"/>
</svg>
