<svg width="18" height="17" viewBox="0 0 18 17" fill="none" xmlns="http://www.w3.org/2000/svg">
<g clipPath="url(#clip0_4144_446)">
<path d="M5.66262 15.4068C12.4534 15.4068 16.1687 10.0919 16.1687 5.48434C16.1687 5.33492 16.1652 5.18219 16.1582 5.03277C16.8809 4.53914 17.5046 3.9277 18 3.22719C17.3269 3.51003 16.6122 3.69475 15.8804 3.77504C16.651 3.33883 17.2279 2.65356 17.5043 1.84627C16.7794 2.252 15.9867 2.5382 15.1601 2.69262C14.6031 2.13371 13.8667 1.76364 13.0648 1.63964C12.2628 1.51563 11.4399 1.6446 10.7233 2.00659C10.0067 2.36858 9.43635 2.94344 9.10039 3.64228C8.76442 4.34113 8.68157 5.12504 8.86465 5.87281C7.39687 5.80325 5.96095 5.44314 4.64999 4.81584C3.33902 4.18853 2.18227 3.30804 1.25473 2.23143C0.7833 2.99907 0.639042 3.90743 0.851273 4.77192C1.0635 5.6364 1.6163 6.39213 2.3973 6.88551C1.81097 6.86793 1.23748 6.71883 0.724219 6.45055V6.49371C0.723693 7.29929 1.01857 8.08018 1.55873 8.70365C2.09889 9.32711 2.85099 9.75467 3.68719 9.91363C3.14404 10.054 2.57399 10.0744 2.02113 9.9734C2.25709 10.6662 2.71618 11.2721 3.33433 11.7067C3.95248 12.1412 4.69884 12.3826 5.46926 12.3972C4.16132 13.3676 2.54563 13.8939 0.882422 13.8914C0.587465 13.8909 0.292799 13.8739 0 13.8402C1.68964 14.864 3.65515 15.4077 5.66262 15.4068Z" fill="white"/>
</g>
<defs>
<clipPath id="clip0_4144_446">
<rect width="18" height="17" fill="white"/>
</clipPath>
</defs>
</svg>
